<mxfile host="app.diagrams.net" modified="2022-04-27T06:29:58.716Z" agent="5.0 (Windows NT 10.0; WOW64) AppleWebKit/537.36 (KHTML, like Gecko) Chrome/83.0.4103.97 Safari/537.36" etag="8E7fmCHz1KMu4qLtZpSU" version="17.4.1" type="github">
  <diagram id="3Y5AjIoROVw2XikMYGVx" name="第 1 页">
    <mxGraphModel dx="2889" dy="1157" grid="1" gridSize="10" guides="1" tooltips="1" connect="1" arrows="1" fold="1" page="1" pageScale="1" pageWidth="827" pageHeight="1169" math="0" shadow="0">
      <root>
        <mxCell id="0" />
        <mxCell id="1" parent="0" />
        <mxCell id="Gyh6B-k8xLfmTIPgiNuV-2" value="&lt;h1&gt;速赔流程图&lt;/h1&gt;" style="text;html=1;strokeColor=none;fillColor=none;spacing=5;spacingTop=-20;whiteSpace=wrap;overflow=hidden;rounded=0;" parent="1" vertex="1">
          <mxGeometry x="-50" y="150" width="150" height="50" as="geometry" />
        </mxCell>
        <mxCell id="DjIvu_O5Mz-OI4DJPFh0-2" value="保宝" style="swimlane;" vertex="1" parent="1">
          <mxGeometry x="150" y="220" width="340" height="680" as="geometry" />
        </mxCell>
        <mxCell id="DjIvu_O5Mz-OI4DJPFh0-20" value="" style="edgeStyle=orthogonalEdgeStyle;rounded=0;orthogonalLoop=1;jettySize=auto;html=1;" edge="1" parent="DjIvu_O5Mz-OI4DJPFh0-2" source="DjIvu_O5Mz-OI4DJPFh0-10" target="DjIvu_O5Mz-OI4DJPFh0-19">
          <mxGeometry relative="1" as="geometry" />
        </mxCell>
        <mxCell id="DjIvu_O5Mz-OI4DJPFh0-10" value="医疗险预赔" style="whiteSpace=wrap;html=1;rounded=0;" vertex="1" parent="DjIvu_O5Mz-OI4DJPFh0-2">
          <mxGeometry x="110" y="100" width="100" height="27.5" as="geometry" />
        </mxCell>
        <mxCell id="DjIvu_O5Mz-OI4DJPFh0-27" value="" style="edgeStyle=orthogonalEdgeStyle;rounded=0;orthogonalLoop=1;jettySize=auto;html=1;" edge="1" parent="DjIvu_O5Mz-OI4DJPFh0-2" source="DjIvu_O5Mz-OI4DJPFh0-19" target="DjIvu_O5Mz-OI4DJPFh0-24">
          <mxGeometry relative="1" as="geometry" />
        </mxCell>
        <mxCell id="DjIvu_O5Mz-OI4DJPFh0-19" value="预赔受理" style="whiteSpace=wrap;html=1;rounded=0;" vertex="1" parent="DjIvu_O5Mz-OI4DJPFh0-2">
          <mxGeometry x="100" y="226" width="120" height="44" as="geometry" />
        </mxCell>
        <mxCell id="DjIvu_O5Mz-OI4DJPFh0-21" value="1、发票可选（无发票需要问题件补传）&lt;br&gt;2、病历可选" style="text;html=1;strokeColor=none;fillColor=none;align=center;verticalAlign=middle;whiteSpace=wrap;rounded=0;" vertex="1" parent="DjIvu_O5Mz-OI4DJPFh0-2">
          <mxGeometry x="233" y="226" width="86" height="30" as="geometry" />
        </mxCell>
        <mxCell id="DjIvu_O5Mz-OI4DJPFh0-24" value="结束" style="rounded=1;whiteSpace=wrap;html=1;" vertex="1" parent="DjIvu_O5Mz-OI4DJPFh0-2">
          <mxGeometry x="100" y="320" width="120" height="60" as="geometry" />
        </mxCell>
        <mxCell id="DjIvu_O5Mz-OI4DJPFh0-30" value="问题件" style="rounded=0;whiteSpace=wrap;html=1;" vertex="1" parent="DjIvu_O5Mz-OI4DJPFh0-2">
          <mxGeometry x="100" y="460" width="120" height="60" as="geometry" />
        </mxCell>
        <mxCell id="DjIvu_O5Mz-OI4DJPFh0-34" value="推送及提交接口增加速赔标识字段" style="text;html=1;strokeColor=none;fillColor=none;align=center;verticalAlign=middle;whiteSpace=wrap;rounded=0;" vertex="1" parent="DjIvu_O5Mz-OI4DJPFh0-2">
          <mxGeometry x="10" y="226" width="60" height="30" as="geometry" />
        </mxCell>
        <mxCell id="DjIvu_O5Mz-OI4DJPFh0-4" value="核心" style="swimlane;" vertex="1" parent="1">
          <mxGeometry x="490" y="220" width="300" height="680" as="geometry" />
        </mxCell>
        <mxCell id="DjIvu_O5Mz-OI4DJPFh0-5" value="核心推送速赔案件" style="rounded=0;whiteSpace=wrap;html=1;" vertex="1" parent="DjIvu_O5Mz-OI4DJPFh0-4">
          <mxGeometry x="100" y="100" width="120" height="30" as="geometry" />
        </mxCell>
        <mxCell id="DjIvu_O5Mz-OI4DJPFh0-7" value="核心推送短信消息" style="rounded=0;whiteSpace=wrap;html=1;" vertex="1" parent="DjIvu_O5Mz-OI4DJPFh0-4">
          <mxGeometry x="100" y="50" width="120" height="30" as="geometry" />
        </mxCell>
        <mxCell id="DjIvu_O5Mz-OI4DJPFh0-22" value="若用户在自助理赔或快赔受理提交，核心通知保宝撤销预赔案件" style="rounded=0;whiteSpace=wrap;html=1;" vertex="1" parent="DjIvu_O5Mz-OI4DJPFh0-4">
          <mxGeometry x="100" y="140" width="130" height="50" as="geometry" />
        </mxCell>
        <mxCell id="DjIvu_O5Mz-OI4DJPFh0-29" value="核心根据是否缺少发票推送补件问题件" style="rounded=0;whiteSpace=wrap;html=1;" vertex="1" parent="DjIvu_O5Mz-OI4DJPFh0-4">
          <mxGeometry x="105" y="460" width="120" height="60" as="geometry" />
        </mxCell>
        <mxCell id="DjIvu_O5Mz-OI4DJPFh0-33" value="结束" style="rounded=0;whiteSpace=wrap;html=1;" vertex="1" parent="DjIvu_O5Mz-OI4DJPFh0-4">
          <mxGeometry x="110" y="580" width="120" height="60" as="geometry" />
        </mxCell>
        <mxCell id="DjIvu_O5Mz-OI4DJPFh0-9" value="" style="edgeStyle=orthogonalEdgeStyle;rounded=0;orthogonalLoop=1;jettySize=auto;html=1;" edge="1" parent="1" source="DjIvu_O5Mz-OI4DJPFh0-7" target="DjIvu_O5Mz-OI4DJPFh0-8">
          <mxGeometry relative="1" as="geometry" />
        </mxCell>
        <mxCell id="DjIvu_O5Mz-OI4DJPFh0-11" value="" style="edgeStyle=orthogonalEdgeStyle;rounded=0;orthogonalLoop=1;jettySize=auto;html=1;" edge="1" parent="1" source="DjIvu_O5Mz-OI4DJPFh0-5" target="DjIvu_O5Mz-OI4DJPFh0-10">
          <mxGeometry relative="1" as="geometry" />
        </mxCell>
        <mxCell id="DjIvu_O5Mz-OI4DJPFh0-16" value="用户" style="swimlane;" vertex="1" parent="1">
          <mxGeometry x="-50" y="220" width="200" height="680" as="geometry" />
        </mxCell>
        <mxCell id="DjIvu_O5Mz-OI4DJPFh0-8" value="用户接收短信" style="whiteSpace=wrap;html=1;rounded=0;" vertex="1" parent="DjIvu_O5Mz-OI4DJPFh0-16">
          <mxGeometry x="37" y="47" width="120" height="35" as="geometry" />
        </mxCell>
        <mxCell id="DjIvu_O5Mz-OI4DJPFh0-17" style="edgeStyle=orthogonalEdgeStyle;rounded=0;orthogonalLoop=1;jettySize=auto;html=1;entryX=0;entryY=0.75;entryDx=0;entryDy=0;" edge="1" parent="1" source="DjIvu_O5Mz-OI4DJPFh0-8" target="DjIvu_O5Mz-OI4DJPFh0-10">
          <mxGeometry relative="1" as="geometry">
            <Array as="points">
              <mxPoint x="50" y="341" />
            </Array>
          </mxGeometry>
        </mxCell>
        <mxCell id="DjIvu_O5Mz-OI4DJPFh0-18" value="点击跳转" style="edgeLabel;html=1;align=center;verticalAlign=middle;resizable=0;points=[];" vertex="1" connectable="0" parent="DjIvu_O5Mz-OI4DJPFh0-17">
          <mxGeometry x="-0.424" y="-2" relative="1" as="geometry">
            <mxPoint as="offset" />
          </mxGeometry>
        </mxCell>
        <mxCell id="DjIvu_O5Mz-OI4DJPFh0-23" style="edgeStyle=orthogonalEdgeStyle;rounded=0;orthogonalLoop=1;jettySize=auto;html=1;" edge="1" parent="1" source="DjIvu_O5Mz-OI4DJPFh0-22">
          <mxGeometry relative="1" as="geometry">
            <mxPoint x="340" y="350" as="targetPoint" />
          </mxGeometry>
        </mxCell>
        <mxCell id="DjIvu_O5Mz-OI4DJPFh0-31" value="" style="edgeStyle=orthogonalEdgeStyle;rounded=0;orthogonalLoop=1;jettySize=auto;html=1;" edge="1" parent="1" source="DjIvu_O5Mz-OI4DJPFh0-29" target="DjIvu_O5Mz-OI4DJPFh0-30">
          <mxGeometry relative="1" as="geometry" />
        </mxCell>
        <mxCell id="DjIvu_O5Mz-OI4DJPFh0-32" style="edgeStyle=orthogonalEdgeStyle;rounded=0;orthogonalLoop=1;jettySize=auto;html=1;entryX=0;entryY=0.5;entryDx=0;entryDy=0;" edge="1" parent="1" source="DjIvu_O5Mz-OI4DJPFh0-30" target="DjIvu_O5Mz-OI4DJPFh0-33">
          <mxGeometry relative="1" as="geometry">
            <mxPoint x="320" y="790" as="targetPoint" />
            <Array as="points">
              <mxPoint x="300" y="830" />
            </Array>
          </mxGeometry>
        </mxCell>
      </root>
    </mxGraphModel>
  </diagram>
</mxfile>
